<?xml version="1.0" standalone="no"?>
<!DOCTYPE svg PUBLIC "-//W3C//DTD SVG 20010904//EN"
 "http://www.w3.org/TR/2001/REC-SVG-20010904/DTD/svg10.dtd">
<svg version="1.0" xmlns="http://www.w3.org/2000/svg"
 width="500.000000pt" height="500.000000pt" viewBox="0 0 500.000000 500.000000"
 preserveAspectRatio="xMidYMid meet">

<g transform="translate(0.000000,500.000000) scale(0.100000,-0.100000)"
fill="#000000" stroke="none">
<path d="M1442 4163 c-6 -3 -10 -8 -7 -13 3 -4 -3 -6 -13 -3 -10 2 -24 -3 -31
-11 -8 -9 -22 -16 -33 -16 -10 0 -16 -5 -13 -10 3 -6 -1 -13 -9 -16 -9 -3 -16
-12 -16 -19 0 -6 -10 -23 -22 -37 -13 -13 -25 -33 -26 -44 -2 -10 -7 -21 -11
-24 -3 -3 -17 -39 -30 -80 -21 -65 -24 -95 -25 -235 -1 -155 0 -163 32 -255
23 -69 33 -119 36 -180 2 -47 9 -121 16 -166 11 -75 10 -84 -9 -121 -11 -23
-18 -50 -16 -62 2 -12 0 -19 -6 -16 -5 4 -9 0 -9 -8 0 -7 11 -20 25 -27 14 -7
25 -17 25 -21 0 -8 53 7 93 28 15 8 39 21 53 28 16 8 21 16 14 20 -11 7 29 45
49 45 6 0 11 5 11 11 0 6 7 9 15 5 19 -7 19 -2 -1 36 -9 16 -11 27 -5 24 10
-6 16 30 14 82 -1 15 9 16 24 1 7 -7 13 -7 17 -1 3 6 -6 20 -21 31 -25 21 -26
22 -7 36 10 8 27 17 37 20 9 4 15 10 12 15 -3 4 5 10 16 13 18 5 20 2 15 -18
-4 -14 0 -27 9 -35 18 -15 20 1 3 18 -9 9 -9 12 1 12 8 0 11 6 7 18 -4 9 7 1
24 -18 l30 -35 -6 30 c-10 46 -10 47 4 52 6 3 12 -2 12 -11 0 -18 16 -29 30
-21 7 4 8 11 1 18 -11 14 -3 67 10 67 4 0 12 -7 17 -16 6 -11 17 -15 31 -11
11 3 21 1 21 -5 0 -6 6 -8 14 -5 8 3 17 -1 20 -9 7 -19 26 -18 26 2 0 14 3 14
15 4 8 -7 15 -9 16 -4 0 5 5 -2 12 -16 11 -24 11 -23 15 18 2 23 7 42 12 42 5
0 13 14 18 32 10 38 28 47 37 18 5 -15 1 -26 -11 -35 -15 -11 -16 -15 -5 -29
10 -12 10 -16 2 -16 -8 0 -11 -11 -9 -27 2 -20 9 -28 23 -28 11 0 21 -8 23
-17 2 -13 -1 -16 -12 -12 -9 3 -16 1 -16 -5 0 -6 7 -11 15 -11 8 0 15 -4 15
-10 0 -5 4 -10 9 -10 10 0 8 65 -3 91 -4 9 0 21 9 29 9 7 15 9 14 4 -4 -23 2
-36 16 -30 11 4 15 -2 16 -22 1 -21 2 -22 6 -7 10 39 24 47 46 28 11 -10 17
-12 12 -4 -9 16 42 64 61 57 7 -3 24 11 39 30 14 19 21 34 16 34 -6 0 -11 12
-11 26 0 21 4 24 20 19 14 -4 20 -2 20 9 0 21 -21 31 -31 15 -6 -11 -9 -10
-15 5 -4 11 -2 21 7 27 10 6 5 9 -16 9 -17 0 -36 5 -43 12 -18 18 -15 48 6 49
9 1 -5 5 -33 10 -51 8 -70 4 -45 -11 19 -12 38 -91 28 -125 -4 -16 -4 -33 -1
-38 4 -6 0 -8 -10 -4 -11 4 -18 -1 -23 -15 -6 -21 -7 -21 -20 -4 -7 10 -10 24
-8 31 3 7 1 16 -5 20 -6 3 -11 1 -11 -5 0 -19 -28 -42 -32 -28 -7 20 11 101
24 109 6 4 13 24 14 44 3 28 0 36 -11 31 -9 -3 -12 0 -9 8 3 7 -2 18 -10 25
-8 7 -12 19 -9 27 3 8 -1 14 -10 14 -8 0 -27 18 -42 40 -15 22 -43 56 -62 76
-32 34 -66 82 -170 239 -52 79 -123 157 -168 185 -17 10 -54 21 -84 25 -30 3
-57 7 -60 9 -3 2 -12 1 -19 -1z m128 -178 c-8 -10 -3 -14 22 -18 18 -3 42 -7
53 -9 11 -2 26 -14 33 -28 19 -36 0 -67 -41 -68 -53 0 -58 -2 -52 -12 4 -6 9
-9 13 -6 4 2 16 0 27 -5 19 -7 19 -8 -2 -8 -13 -1 -23 -4 -23 -8 0 -10 49 -33
71 -33 9 0 19 -7 23 -15 3 -8 21 -23 41 -32 23 -11 31 -19 23 -24 -7 -4 -19
-4 -27 0 -9 5 -31 11 -48 14 -31 6 -32 5 -21 -13 7 -11 17 -19 23 -19 25 3 35
-2 35 -17 0 -11 6 -13 19 -9 11 3 22 1 26 -5 3 -5 0 -10 -7 -11 -56 -5 -73 -7
-73 -9 0 -1 -22 -4 -48 -5 -27 -1 -59 -8 -73 -15 -20 -11 -27 -11 -43 4 -15
13 -32 17 -64 15 -25 -2 -43 -1 -40 4 2 4 -11 7 -30 7 -30 0 -38 6 -56 36 -12
19 -19 39 -16 43 2 4 0 24 -6 44 -13 50 -1 68 60 92 28 11 51 22 51 26 0 4 11
10 25 13 14 4 25 11 25 17 0 6 -8 9 -19 6 -14 -3 -17 0 -14 14 3 11 10 19 15
19 5 0 6 5 3 10 -3 6 -1 10 4 10 6 0 11 -4 11 -9 0 -5 15 -11 34 -13 30 -3 36
0 41 19 3 15 10 20 20 16 11 -4 13 -9 5 -18z m100 -145 c0 -5 -5 -10 -11 -10
-5 0 -7 5 -4 10 3 6 8 10 11 10 2 0 4 -4 4 -10z m-156 -209 c5 -7 -57 -31 -83
-31 -25 0 -9 17 27 27 50 14 50 14 56 4z m229 -8 c-7 -2 -19 -2 -25 0 -7 3 -2
5 12 5 14 0 19 -2 13 -5z m-123 -51 c0 -12 -75 -36 -91 -29 -8 3 1 8 19 12 24
6 30 10 20 16 -9 6 -2 9 20 9 17 0 32 -4 32 -8z m45 -20 c-2 -10 2 -19 8 -20
57 -9 84 -9 103 -2 16 6 34 3 61 -10 l38 -19 -40 -1 c-22 -1 -50 -3 -62 -4
-22 -3 -98 -55 -90 -62 2 -3 35 0 72 6 37 6 70 8 73 5 3 -3 0 -5 -6 -5 -6 0
-23 -5 -39 -12 -15 -6 -37 -12 -48 -14 -11 -1 -47 -5 -80 -9 -102 -11 -118 -8
-98 23 10 16 5 18 -56 14 -61 -3 -65 -2 -47 13 17 13 17 15 3 15 -9 0 -22 -6
-28 -13 -13 -14 -69 -11 -69 4 0 5 -7 9 -15 9 -24 0 -17 17 13 28 43 17 151
34 173 27 29 -10 119 14 119 31 0 8 4 14 9 14 6 0 8 -8 6 -18z m135 -76 c0 -2
-9 -6 -20 -9 -11 -3 -18 -1 -14 4 5 9 34 13 34 5z m-270 -76 c-8 -5 -26 -9
-40 -9 -23 0 -23 1 -5 9 11 5 29 9 40 9 17 1 17 -1 5 -9z m75 -115 c-16 -8
-39 -14 -50 -14 -15 1 -13 4 10 14 17 8 39 14 50 14 15 -1 13 -4 -10 -14z
m443 -6 c-2 -6 -8 -10 -13 -10 -5 0 -11 4 -13 10 -2 6 4 11 13 11 9 0 15 -5
13 -11z m-646 -25 c-7 -12 -11 -13 -17 -4 -4 7 -2 16 6 21 18 11 23 4 11 -17z
m-75 -190 c-3 -3 -12 -4 -19 -1 -8 3 -5 6 6 6 11 1 17 -2 13 -5z"/>
<path d="M1543 3912 c-6 -4 16 -8 50 -8 42 -1 54 1 37 6 -34 11 -72 11 -87 2z"/>
<path d="M1355 3840 c-3 -5 -1 -10 4 -10 6 0 11 5 11 10 0 6 -2 10 -4 10 -3 0
-8 -4 -11 -10z"/>
<path d="M1485 3813 c-18 -14 -18 -15 -2 -9 10 3 25 6 33 6 8 0 14 5 14 10 0
15 -22 12 -45 -7z"/>
<path d="M1545 3820 c3 -5 8 -10 11 -10 2 0 4 5 4 10 0 6 -5 10 -11 10 -5 0
-7 -4 -4 -10z"/>
<path d="M1370 3750 c-18 -12 -2 -12 25 0 13 6 15 9 5 9 -8 0 -22 -4 -30 -9z"/>
<path d="M1675 3490 c-19 -8 -19 -9 2 -9 12 -1 25 4 28 9 7 12 -2 12 -30 0z"/>
<path d="M1590 3430 c0 -6 7 -10 15 -10 8 0 15 2 15 4 0 2 -7 6 -15 10 -8 3
-15 1 -15 -4z"/>
<path d="M3823 4063 c-7 -2 -10 -10 -7 -18 3 -7 1 -16 -4 -19 -14 -8 -43 4
-36 15 3 5 1 9 -4 9 -6 0 -16 -15 -23 -32 -11 -30 -13 -31 -16 -10 -6 28 -14
28 -43 -3 -25 -27 -51 -35 -30 -10 19 22 -4 18 -25 -5 -10 -11 -21 -17 -26
-14 -4 2 -13 -5 -20 -18 -22 -41 -113 -143 -103 -115 3 9 1 17 -5 17 -10 0
-15 -14 -12 -33 1 -5 -3 -6 -8 -3 -5 4 -17 -4 -25 -16 -9 -12 -16 -17 -16 -10
0 24 -28 11 -43 -20 -9 -18 -25 -41 -36 -50 -26 -22 -27 -56 -3 -65 14 -6 13
-8 -8 -13 -14 -4 -24 -12 -22 -19 1 -7 -4 -19 -13 -27 -8 -9 -15 -21 -15 -28
0 -17 -48 -61 -57 -52 -5 4 1 14 11 22 11 8 16 14 10 14 -5 1 0 8 12 18 11 10
25 32 32 50 10 28 9 32 -7 32 -24 0 -73 -46 -95 -88 -9 -17 -19 -32 -22 -32
-3 0 -2 5 1 10 3 6 2 10 -4 10 -12 0 -23 -32 -18 -51 2 -8 2 -11 0 -6 -12 21
-34 -11 -46 -68 -4 -18 -5 -18 -6 3 0 12 -5 22 -10 22 -12 0 -25 -30 -22 -52
1 -9 -7 -19 -19 -23 -11 -3 -20 -12 -20 -20 0 -13 -24 -27 -33 -19 -6 6 22 88
40 118 8 14 8 26 1 42 l-11 23 -28 -27 c-16 -15 -29 -37 -29 -49 0 -20 -5 -23
-37 -22 -56 0 -78 -6 -81 -23 -2 -9 6 -22 17 -30 17 -12 19 -22 15 -69 -2 -29
-6 -59 -9 -66 -2 -6 2 -16 8 -21 8 -7 21 -2 41 19 16 16 31 28 32 26 3 -3 12
-42 13 -61 1 -5 7 -3 15 3 12 10 16 5 26 -26 7 -21 21 -49 30 -63 9 -14 15
-31 13 -37 -3 -7 0 -13 6 -13 6 0 11 -10 11 -22 0 -19 3 -17 18 12 11 23 23
34 35 32 9 -2 17 2 17 8 0 5 -5 10 -12 10 -7 0 5 17 25 38 21 21 34 42 30 46
-4 4 3 9 15 13 12 3 22 10 22 16 0 6 3 7 7 4 3 -4 12 -2 18 3 9 8 14 6 19 -5
5 -14 9 -13 28 4 26 25 40 27 32 6 -4 -8 -12 -15 -20 -15 -8 0 -14 -6 -14 -14
0 -8 -3 -23 -6 -33 -4 -12 -3 -14 3 -6 5 7 24 16 42 19 31 7 33 6 22 -14 -17
-32 -13 -38 9 -14 12 12 25 22 29 22 13 0 21 -28 14 -47 -5 -14 -1 -13 19 5
29 26 63 29 76 5 6 -10 16 -14 26 -10 10 4 16 1 16 -8 0 -8 5 -15 11 -15 7 0
9 -11 6 -30 -4 -17 -2 -30 3 -30 19 0 9 -22 -34 -75 -31 -38 -43 -61 -39 -75
3 -11 9 -20 14 -20 5 0 9 -5 9 -11 0 -6 10 -19 23 -30 12 -10 16 -18 10 -19
-7 0 -13 -7 -13 -15 0 -12 4 -13 19 -5 27 14 31 13 31 -7 0 -15 2 -16 10 -3 8
12 10 10 10 -10 0 -30 38 -69 50 -50 5 8 14 8 36 -2 43 -19 59 -37 45 -51 -8
-8 -11 -7 -12 3 0 10 -4 7 -9 -5 -8 -19 -9 -19 -9 3 -1 13 -5 20 -11 17 -5 -3
-10 -1 -10 4 0 13 -37 15 -44 2 -3 -4 3 -26 14 -48 10 -22 17 -49 14 -60 -4
-15 0 -23 16 -28 26 -8 21 -29 -8 -33 -26 -4 -28 -15 -7 -32 8 -7 15 -18 15
-24 0 -7 -3 -7 -8 1 -4 7 -29 12 -57 12 -63 0 -107 -8 -100 -19 13 -21 -133
-20 -160 1 -18 13 -99 28 -110 20 -18 -14 -171 -13 -193 0 -18 11 -20 21 -16
72 2 32 0 66 -5 76 -6 10 -11 43 -12 73 -2 42 -6 55 -16 51 -8 -3 -11 0 -9 8
3 8 7 29 10 47 3 26 1 32 -10 28 -8 -3 -14 0 -14 6 0 7 -5 6 -15 -2 -8 -7 -14
-18 -14 -24 1 -6 -1 -19 -6 -29 -4 -11 -5 -57 -2 -103 4 -54 2 -84 -4 -84 -6
0 -7 -5 -4 -11 4 -6 -2 -13 -14 -16 -11 -3 -23 -14 -26 -24 -4 -10 -10 -19
-15 -19 -10 0 -42 55 -36 61 2 2 6 20 10 39 3 21 3 30 -3 21 -5 -8 -9 2 -10
30 -1 24 -3 59 -4 78 -2 20 2 35 10 38 16 6 17 65 2 80 -15 15 -7 58 11 58 8
0 15 6 15 13 0 6 -4 12 -10 11 -18 -1 -22 36 -6 76 15 39 41 75 41 58 1 -11
24 29 26 45 1 6 -2 10 -7 6 -5 -3 -12 2 -15 10 -3 9 -12 16 -20 16 -8 0 -14 7
-14 15 0 8 -6 12 -13 9 -7 -2 -23 5 -35 16 l-22 21 -11 -28 c-8 -21 -8 -37 1
-61 9 -25 9 -37 1 -45 -15 -15 -14 -62 2 -79 16 -18 21 -42 6 -32 -7 4 -9 0
-6 -12 3 -11 9 -41 13 -69 3 -27 11 -58 16 -68 7 -13 5 -25 -6 -42 -23 -36
-46 -107 -49 -157 -3 -38 -6 -43 -26 -43 -20 0 -26 8 -38 55 -7 30 -20 58 -28
62 -7 5 -16 22 -20 38 -4 17 -13 37 -21 45 -18 17 -19 34 -9 95 8 42 7 44 -8
28 -10 -9 -17 -26 -17 -37 0 -46 -20 -27 -40 39 -21 71 -29 80 -48 57 -13 -15
-4 -88 11 -98 5 -4 10 -19 11 -35 1 -16 4 -33 8 -39 12 -20 12 -73 -1 -88 -7
-9 -10 -21 -6 -27 3 -5 2 -10 -4 -10 -5 0 -13 -9 -16 -20 -10 -30 -21 -16 -28
33 -8 60 -27 97 -47 97 -20 0 -34 49 -19 65 14 14 11 45 -5 45 -18 0 -46 -44
-46 -72 0 -47 11 -69 32 -62 18 5 19 1 17 -63 -2 -68 13 -119 32 -108 5 4 9
-9 9 -29 0 -20 5 -36 10 -36 6 0 10 5 10 11 0 7 9 9 21 6 18 -5 20 -2 15 19
-4 14 -2 24 4 24 5 0 10 14 10 31 0 26 2 28 14 17 13 -13 16 -53 5 -73 -5 -9
-5 -36 0 -90 2 -23 16 -18 29 10 8 16 17 23 27 19 12 -5 14 -2 8 12 -4 11 10
1 30 -20 20 -21 37 -45 37 -52 0 -8 5 -14 10 -14 6 0 10 -4 10 -10 0 -5 -7 -7
-15 -4 -8 4 -17 -1 -21 -10 -3 -9 -10 -13 -16 -10 -5 3 -3 -8 6 -24 20 -38 20
-53 2 -46 -13 5 -13 2 -3 -19 13 -27 27 -18 27 18 0 19 2 18 23 -5 12 -14 40
-35 62 -46 41 -23 68 -18 88 14 10 16 31 -2 39 -35 6 -24 -25 -83 -43 -83 -8
0 -10 -14 -6 -45 5 -34 4 -43 -7 -39 -7 3 -19 -2 -26 -11 -16 -19 -44 -20 -37
0 5 11 -1 14 -23 12 -17 -1 -30 -8 -30 -14 0 -7 -4 -13 -10 -13 -5 0 -10 5
-10 10 0 6 -9 10 -20 10 -11 0 -20 -4 -20 -10 0 -5 -6 -10 -14 -10 -19 0 -42
-30 -30 -38 5 -4 10 -18 12 -32 1 -13 6 -27 10 -30 5 -3 11 -13 15 -22 6 -18
47 -21 48 -3 0 5 4 1 9 -10 7 -17 9 -17 9 -2 1 21 31 23 31 2 0 -8 5 -15 10
-15 6 0 5 -8 -2 -20 -11 -18 -14 -18 -35 -4 -13 8 -23 12 -23 10 0 -3 -13 -1
-29 4 -18 5 -33 4 -40 -3 -14 -14 -41 9 -35 31 2 9 -1 7 -7 -6 -10 -19 -9 -25
6 -36 11 -8 26 -11 35 -8 8 3 3 -6 -12 -21 -21 -20 -37 -27 -68 -27 -22 0 -49
-5 -60 -12 -26 -17 -37 -2 -16 21 12 13 15 27 11 41 -4 11 -2 27 5 35 16 19
-6 52 -39 58 -27 6 -65 -19 -55 -34 3 -5 0 -9 -5 -9 -6 0 -11 5 -11 11 0 5 -4
7 -10 4 -5 -3 -10 -1 -10 5 0 7 -8 9 -19 5 -27 -8 -33 17 -14 64 14 37 14 43
-1 75 -16 34 -17 35 -35 17 -10 -10 -25 -23 -34 -27 -8 -5 -18 -20 -22 -32 -6
-21 -4 -23 14 -17 24 7 27 -8 9 -52 -6 -15 -10 -36 -9 -47 2 -10 -3 -23 -11
-27 -10 -7 -9 -9 5 -9 14 0 16 -6 12 -27 -6 -27 -6 -27 9 -9 11 13 13 23 6 32
-8 8 -6 13 6 18 24 9 27 8 21 -16 -5 -18 0 -26 18 -35 14 -6 23 -7 19 -2 -3 5
1 9 9 9 18 0 33 -33 17 -38 -6 -2 1 -13 15 -24 14 -11 22 -24 19 -29 -10 -16
5 -59 21 -59 13 0 52 -19 104 -51 13 -9 20 -22 18 -36 -4 -31 -17 -41 -28 -21
-11 20 -42 16 -66 -8 -13 -13 -28 -15 -70 -11 -37 4 -57 2 -67 -8 -7 -7 -27
-15 -44 -17 -53 -5 -23 -30 34 -30 27 1 65 1 84 1 19 0 37 -4 38 -9 5 -14 16
-12 40 7 69 59 72 60 51 22 -5 -11 -14 -17 -18 -15 -5 3 -21 -9 -36 -26 -24
-27 -29 -29 -37 -14 -13 24 -41 21 -33 -4 5 -15 0 -21 -22 -26 -15 -3 -34 -7
-41 -10 -7 -2 -11 0 -8 5 11 17 -25 21 -54 6 -16 -8 -35 -15 -43 -15 -25 0
-37 -21 -21 -37 7 -8 18 -12 23 -9 5 4 21 2 35 -4 17 -6 26 -6 26 0 0 6 5 10
10 10 15 0 12 -30 -2 -31 -37 -2 -59 -6 -64 -11 -3 -4 -21 0 -39 8 -19 7 -41
11 -49 8 -8 -3 -24 0 -36 6 -16 9 -25 9 -35 0 -17 -14 -8 -40 14 -40 10 0 12
-3 5 -8 -20 -13 -38 -56 -25 -60 19 -6 12 -17 -26 -37 -27 -15 -37 -17 -41 -7
-2 6 -10 12 -18 12 -7 0 -11 6 -8 14 3 8 12 12 20 9 18 -7 18 4 1 22 -8 7 -25
11 -40 8 -32 -6 -35 7 -7 32 26 23 27 50 3 37 -24 -12 -143 -21 -143 -10 0 4
8 8 17 8 9 0 14 3 10 6 -11 12 17 33 30 22 20 -16 33 -5 17 16 -13 19 -17 19
-78 4 -37 -8 -70 -11 -78 -7 -7 5 -22 8 -33 8 l-20 0 20 -9 c19 -7 19 -8 -5
-17 -42 -17 -131 -36 -137 -29 -3 3 13 8 36 12 46 7 49 11 24 30 -16 12 -15
13 12 14 17 0 52 7 79 15 27 8 75 15 107 15 32 0 70 5 86 11 l28 12 -40 12
-40 13 28 7 c55 14 22 30 -60 29 -78 -1 -223 -37 -231 -57 -2 -4 -19 -5 -37
-1 -19 3 -35 1 -39 -5 -5 -7 3 -11 20 -11 23 0 25 -2 13 -17 -13 -15 -11 -16
14 -11 15 3 27 1 27 -3 0 -5 -6 -9 -12 -9 -7 0 -4 -6 6 -12 18 -10 17 -11 -9
-22 -20 -8 -29 -20 -31 -41 -5 -42 4 -75 19 -69 7 2 31 -13 53 -34 43 -40 94
-76 94 -67 0 3 22 -11 50 -30 27 -19 58 -35 67 -35 10 0 31 -11 46 -26 15 -14
32 -22 37 -19 5 3 19 -4 31 -16 12 -12 29 -19 40 -16 10 3 22 -1 27 -8 4 -7
32 -23 62 -36 46 -20 72 -24 157 -24 57 0 103 -3 103 -6 0 -4 17 -9 38 -12 20
-3 60 -11 87 -17 70 -16 197 -21 213 -7 10 8 21 6 41 -6 27 -16 31 -15 69 3
23 11 51 20 62 20 34 0 110 22 110 31 0 5 8 9 17 9 51 0 138 42 138 67 0 14 7
17 32 15 18 -2 35 2 40 10 4 7 20 21 36 31 16 11 27 26 27 40 0 25 47 52 73
42 8 -4 18 -1 22 4 3 6 10 9 15 6 4 -2 13 9 20 25 7 17 16 30 20 30 3 0 20 13
36 30 16 16 39 30 52 30 12 0 22 5 22 10 0 6 7 10 15 10 8 0 15 4 15 10 0 10
21 39 57 77 13 13 22 27 22 31 -1 4 -1 22 0 40 1 28 4 32 28 32 20 0 24 3 16
11 -12 12 -3 37 25 67 6 7 12 22 12 33 0 10 4 19 10 19 5 0 12 15 16 34 3 19
15 42 25 52 11 10 19 30 19 49 0 17 5 36 11 42 7 7 9 19 5 28 -5 15 -17 17
-84 12 -64 -5 -70 -4 -37 4 36 9 64 14 113 18 21 2 47 57 61 131 14 78 31 217
33 273 1 26 5 47 9 47 16 0 20 60 6 89 -10 21 -12 31 -4 34 8 2 6 17 -6 48 -9
24 -19 64 -22 88 -3 26 -16 56 -31 74 -59 70 -66 132 -28 240 21 60 27 95 26
162 -1 68 13 135 32 150 7 6 14 15 16 20 8 31 20 53 30 57 6 2 12 17 13 33 1
17 5 32 8 35 3 3 9 19 13 35 5 23 4 26 -4 15 -9 -12 -10 -10 -8 10 2 14 9 25
18 25 9 0 17 15 22 40 10 58 9 87 -2 80 -6 -4 -7 2 -1 17 4 13 6 29 4 36 -3 6
0 12 5 12 6 0 13 -6 16 -12 3 -7 4 20 2 60 -2 40 0 74 4 77 4 2 5 18 2 36 -3
23 -7 28 -14 18 -6 -9 -8 2 -5 34 4 44 3 48 -14 44 -16 -4 -18 -1 -13 19 4 17
2 24 -8 24 -8 0 -21 11 -28 25 -8 14 -20 23 -27 21 -19 -8 -16 11 5 23 15 9
15 11 2 24 -8 8 -20 13 -27 10z m-44 -128 c-1 -6 -9 -16 -16 -23 -11 -11 -13
-11 -13 2 0 19 -1 19 -33 7 -38 -15 -41 0 -4 19 31 17 71 14 66 -5z m101 -5
c0 -5 -4 -10 -10 -10 -5 0 -10 5 -10 10 0 6 5 10 10 10 6 0 10 -4 10 -10z
m-146 -35 c-4 -8 -11 -15 -16 -15 -6 0 -5 6 2 15 7 8 14 15 16 15 2 0 1 -7 -2
-15z m177 -32 c-5 -26 -6 -26 -9 -5 -2 13 -8 19 -14 16 -7 -4 -8 -2 -4 4 15
24 33 13 27 -15z m-160 -10 c13 -10 18 -11 21 -2 6 17 48 -7 48 -26 0 -8 5
-15 10 -15 6 0 10 -6 10 -12 -1 -7 -11 -1 -23 14 -12 15 -31 27 -42 26 -11 0
-36 2 -56 6 -54 11 -54 -7 -1 -34 26 -14 56 -32 66 -40 18 -14 18 -14 7 8 -8
14 -8 22 -1 22 6 0 20 -20 31 -44 17 -34 20 -53 15 -89 l-7 -47 -25 16 c-26
18 -34 4 -9 -16 17 -14 18 -20 7 -38 -9 -13 -42 -6 -42 9 0 4 7 6 16 2 12 -4
15 -2 12 8 -3 8 -18 14 -39 14 -19 0 -47 9 -64 20 -38 26 -81 45 -103 45 -29
0 -49 17 -35 31 8 8 24 8 63 0 29 -6 55 -10 57 -7 2 2 -15 13 -38 24 -41 20
-41 21 -16 27 15 4 34 1 49 -8 32 -21 68 -30 68 -18 0 5 -6 11 -12 14 -16 5 8
1 42 -8 24 -6 24 -6 -5 20 -16 14 -42 28 -57 32 -15 3 -25 9 -22 14 3 5 1 9
-5 9 -5 0 -13 -5 -17 -11 -3 -6 -16 -8 -29 -5 -13 3 -27 0 -34 -8 -15 -18 -45
-14 -49 8 -2 10 2 15 10 14 8 -2 13 6 12 20 -1 20 3 22 27 17 22 -5 30 -2 39
15 10 19 17 20 58 14 26 -3 54 -13 63 -21z m-276 -71 c-6 -7 -34 11 -29 19 3
5 11 3 19 -4 7 -6 12 -13 10 -15z m457 -36 c3 -14 1 -31 -3 -38 -6 -8 -9 1 -9
25 0 42 6 48 12 13z m-399 -3 c-7 -2 -13 -11 -13 -18 0 -15 -51 -27 -64 -15
-5 5 -16 6 -25 2 -14 -5 -14 -4 -2 11 16 20 38 22 43 5 4 -10 11 -8 29 4 13 9
29 17 34 17 6 0 4 -3 -2 -6z m7 -75 c0 -12 83 -49 143 -64 20 -5 26 -11 22
-24 -3 -11 5 -25 25 -40 38 -29 39 -45 2 -26 -17 8 -46 13 -68 11 -25 -2 -51
3 -74 15 -95 51 -150 70 -150 51 0 -6 8 -11 18 -11 24 0 94 -37 104 -55 12
-20 91 -41 96 -25 3 7 10 6 23 -6 25 -22 24 -34 -2 -34 -11 0 -18 4 -15 8 5 8
-9 8 -89 3 l-20 -2 20 -15 c11 -9 35 -22 53 -30 23 -10 32 -21 31 -37 0 -12
-3 -16 -6 -9 -2 6 -12 12 -21 12 -9 0 -28 9 -42 20 -26 21 -66 27 -55 10 9
-15 137 -75 153 -72 6 2 12 -2 12 -8 0 -15 -27 -12 -54 5 -13 9 -35 18 -47 20
-13 1 -44 6 -69 10 -25 4 -60 9 -79 10 -19 2 -37 9 -41 15 -4 7 -16 11 -26 9
-11 -1 -27 1 -36 5 -10 5 -30 4 -45 -1 -32 -11 -87 -3 -87 12 0 10 19 18 92
35 23 6 42 15 42 20 0 5 -13 5 -31 0 -32 -9 -59 -4 -59 11 0 5 9 9 19 9 11 0
23 5 26 10 3 6 15 10 26 10 10 0 19 5 19 10 0 6 -7 10 -15 10 -8 0 -15 4 -15
10 0 6 18 7 44 4 27 -4 46 -2 50 5 5 7 -2 11 -18 11 -33 0 -33 17 -2 31 14 7
22 17 19 25 -3 10 5 16 26 20 17 4 31 10 31 15 0 4 12 10 28 12 15 2 30 5 35
6 4 0 7 -5 7 -11z m210 -68 c0 -5 -4 -10 -10 -10 -5 0 -10 5 -10 10 0 6 5 10
10 10 6 0 10 -4 10 -10z m170 -30 c0 -5 -7 -10 -16 -10 -8 0 -12 5 -9 10 3 6
10 10 16 10 5 0 9 -4 9 -10z m-710 -96 c0 0 -11 -14 -25 -30 l-25 -29 -1 30
c0 28 -1 28 -9 8 -5 -13 -14 -23 -19 -23 -7 0 -7 9 0 24 9 19 18 24 45 23 19
-1 34 -2 34 -3z m520 -14 c0 -5 -4 -10 -10 -10 -5 0 -10 5 -10 10 0 6 5 10 10
10 6 0 10 -4 10 -10z m-220 -105 c14 -4 44 -7 67 -7 38 0 41 -2 28 -15 -18
-17 -19 -25 -3 -41 13 -13 -42 -8 -98 9 -52 16 -73 18 -79 8 -9 -14 -25 -11
-25 6 0 8 -8 15 -17 15 -15 1 -13 3 5 13 12 7 19 16 16 20 -8 8 65 2 106 -8z
m-147 -24 c3 -14 1 -18 -9 -14 -8 3 -14 11 -14 19 0 21 17 17 23 -5z m-236
-33 c-3 -8 -6 -5 -6 6 -1 11 2 17 5 13 3 -3 4 -12 1 -19z m507 6 c3 -8 2 -12
-4 -9 -6 3 -10 10 -10 16 0 14 7 11 14 -7z m-441 -34 c-3 -12 -8 -19 -11 -16
-5 6 5 36 12 36 2 0 2 -9 -1 -20z m-78 -29 c-3 -6 -11 -11 -17 -11 -6 0 -6 6
2 15 14 17 26 13 15 -4z m32 -48 c-15 -15 -17 -15 -22 -1 -4 9 -1 27 6 40 l12
23 10 -23 c8 -18 7 -27 -6 -39z m-57 -3 c0 -11 5 -20 10 -20 18 0 10 -22 -10
-27 -11 -3 -20 -12 -20 -19 0 -8 -5 -14 -11 -14 -10 0 -4 73 8 93 9 14 23 7
23 -13z m-430 -624 c0 -35 49 -20 51 16 0 8 2 9 5 2 3 -6 0 -23 -5 -37 -8 -21
-17 -27 -40 -27 -27 0 -30 3 -29 28 1 15 -3 36 -7 47 -8 19 -8 19 8 3 9 -9 17
-23 17 -32z m-88 -38 c-9 -9 -12 -7 -12 12 0 19 3 21 12 12 9 -9 9 -15 0 -24z
m161 -46 c7 -9 6 -11 -7 -6 -9 3 -16 16 -15 28 0 14 2 16 6 6 3 -8 10 -21 16
-28z m581 -35 c13 -9 17 -23 14 -52 l-3 -40 -22 23 c-14 13 -23 34 -23 52 0
33 7 37 34 17z m267 -88 c21 -8 26 -14 18 -20 -9 -5 -5 -10 14 -14 l26 -7 -32
-26 c-18 -15 -33 -30 -35 -34 -2 -5 -10 -8 -18 -8 -8 0 -14 -4 -14 -10 0 -5
-15 -16 -34 -24 -36 -15 -56 -36 -34 -36 22 0 -101 -59 -138 -66 -19 -3 -34
-12 -34 -19 0 -20 -32 -27 -84 -20 -37 5 -47 3 -52 -9 -3 -9 -12 -16 -20 -16
-8 0 -14 -9 -14 -20 0 -11 -7 -23 -16 -27 -15 -5 -15 -7 0 -15 22 -12 11 -28
-14 -21 -11 3 -17 9 -14 14 3 5 -4 9 -14 9 -11 0 -22 -7 -26 -15 -4 -12 -10
-13 -32 -3 -21 10 -25 17 -20 40 3 17 1 28 -5 28 -7 0 -9 12 -5 35 5 23 2 45
-9 64 -20 41 -10 65 24 56 14 -4 67 -10 118 -12 71 -3 98 -1 122 12 17 8 31
20 31 24 0 5 3 17 6 25 5 12 2 15 -10 10 -24 -9 -20 1 14 34 17 17 30 38 30
46 0 9 7 16 15 16 20 0 20 -59 -1 -88 -8 -12 -11 -22 -6 -22 8 0 52 46 52 55
0 7 51 55 59 55 4 0 16 9 26 19 19 22 88 33 93 14 2 -6 17 -17 33 -24z m-306
-43 c-20 -41 -40 -49 -25 -10 6 14 10 37 10 52 0 24 1 25 16 10 15 -14 15 -19
-1 -52z m-35 -66 c0 -5 -4 -10 -10 -10 -5 0 -10 5 -10 10 0 6 5 10 10 10 6 0
10 -4 10 -10z m-510 -197 c-8 -3 -20 -10 -26 -14 -7 -5 -11 -3 -11 6 0 10 10
15 26 14 16 0 20 -3 11 -6z m-40 -53 c0 -5 -4 -10 -10 -10 -5 0 -10 5 -10 10
0 6 5 10 10 10 6 0 10 -4 10 -10z m477 -26 c-3 -3 -12 -4 -19 -1 -8 3 -5 6 6
6 11 1 17 -2 13 -5z m-869 -23 c3 -8 -1 -12 -9 -9 -7 2 -15 10 -17 17 -3 8 1
12 9 9 7 -2 15 -10 17 -17z m742 -11 c0 -5 -5 -10 -11 -10 -5 0 -7 5 -4 10 3
6 8 10 11 10 2 0 4 -4 4 -10z m167 -6 c13 -4 20 -10 17 -15 -3 -5 5 -9 17 -9
17 0 20 -3 12 -11 -7 -7 -28 -8 -58 -3 -41 6 -46 9 -32 19 9 7 14 15 10 18 -8
9 5 9 34 1z m-195 -34 c9 0 21 -6 25 -14 4 -8 29 -23 54 -35 35 -17 51 -19 70
-12 13 5 18 10 11 10 -20 1 -3 21 17 21 10 0 23 -6 29 -13 11 -12 -33 -29
-131 -51 -15 -4 -25 -11 -22 -16 3 -6 2 -10 -4 -10 -5 0 -11 5 -13 11 -2 7
-13 9 -27 4 -28 -9 -24 -42 4 -37 11 2 45 7 75 11 72 10 96 20 78 33 -9 7 -5
8 12 3 14 -4 44 -10 68 -14 56 -10 71 -27 30 -35 -7 -2 -38 -10 -68 -19 -30
-8 -88 -16 -128 -16 -39 0 -77 -3 -83 -6 -5 -4 -21 1 -35 10 -14 9 -32 14 -40
11 -8 -3 -14 -3 -14 0 0 2 10 9 23 14 l22 9 -24 0 -24 1 21 19 c23 19 18 39
-5 20 -9 -8 -13 -8 -13 -1 0 6 4 13 10 17 5 3 7 11 5 18 -6 17 24 55 33 41 13
-20 70 -45 77 -33 8 11 -24 40 -39 36 -10 -3 -56 36 -56 47 0 4 10 0 22 -8 12
-9 30 -16 40 -16z m292 -31 c-3 -6 -12 -8 -19 -5 -7 2 -18 -1 -24 -7 -8 -8
-11 -8 -11 0 0 12 12 18 42 20 10 1 16 -3 12 -8z m239 4 c-7 -2 -19 -2 -25 0
-7 3 -2 5 12 5 14 0 19 -2 13 -5z m-170 -30 c-7 -2 -19 -2 -25 0 -7 3 -2 5 12
5 14 0 19 -2 13 -5z m-93 -19 c-53 -16 -68 -18 -54 -5 11 11 40 19 74 19 16 0
10 -4 -20 -14z m50 -104 c0 -6 12 -16 28 -22 l27 -11 -25 -7 -25 -7 25 -5 c14
-3 7 -4 -14 -2 -21 1 -42 8 -46 15 -5 7 -35 12 -78 13 -78 1 -76 15 3 17 28 0
59 4 70 9 27 12 35 12 35 0z m200 -54 c67 -15 55 -23 -27 -18 -46 3 -63 8 -63
18 0 17 18 17 90 0z m-336 -5 c7 -11 -36 -23 -44 -12 -3 4 -12 11 -20 14 -8 3
2 6 22 6 20 1 39 -3 42 -8z m-224 -5 c0 -2 -9 -6 -20 -9 -11 -3 -20 -1 -20 4
0 5 9 9 20 9 11 0 20 -2 20 -4z m94 -31 c3 -8 1 -15 -4 -15 -6 0 -10 7 -10 15
0 8 2 15 4 15 2 0 6 -7 10 -15z m-104 -5 c0 -5 -7 -10 -15 -10 -8 0 -15 5 -15
10 0 6 7 10 15 10 8 0 15 -4 15 -10z m435 -23 c7 -6 -8 -7 -42 -3 -29 4 -53 3
-53 -2 0 -5 -6 -9 -13 -9 -10 0 -16 33 -8 43 4 5 108 -21 116 -29z m-910 4
c-3 -6 -11 -11 -16 -11 -5 0 -4 6 3 14 14 16 24 13 13 -3z m952 -17 c-3 -3
-12 -4 -19 -1 -8 3 -5 6 6 6 11 1 17 -2 13 -5z m-143 -49 c-4 -8 -10 -12 -15
-9 -5 3 -6 -2 -3 -10 3 -9 11 -16 18 -16 18 -1 50 -29 42 -37 -4 -4 -10 -2
-14 4 -4 6 -21 14 -37 18 -23 5 -26 4 -15 -4 9 -6 10 -11 3 -11 -6 0 -9 -9 -6
-20 3 -11 9 -20 14 -20 5 0 9 -8 9 -17 -1 -17 -1 -17 -14 0 -14 17 -36 23 -36
9 0 -4 5 -13 11 -19 8 -8 5 -13 -10 -18 -12 -3 -21 -11 -21 -16 0 -5 -7 -9
-15 -9 -19 0 -19 -9 1 -31 21 -23 10 -39 -26 -39 -16 0 -30 -7 -34 -16 -3 -8
-10 -12 -16 -9 -5 3 -10 1 -10 -5 0 -6 -5 -8 -10 -5 -6 3 -13 -1 -16 -10 -6
-14 -10 -13 -30 6 -34 32 -31 3 4 -34 15 -17 21 -27 13 -22 -7 4 -29 11 -49
16 -31 7 -38 4 -54 -17 -14 -17 -26 -22 -42 -18 -16 4 -25 0 -30 -11 -4 -11
-12 -15 -22 -11 -9 4 -23 -2 -32 -13 -10 -11 -27 -22 -39 -26 -18 -5 -23 -2
-23 13 0 12 9 22 21 25 12 3 18 10 14 17 -4 6 3 20 15 30 13 11 19 24 14 31
-5 9 -2 10 10 6 14 -6 17 -3 12 9 -5 13 -1 14 24 9 23 -5 30 -3 30 9 0 11 9
16 28 16 26 0 28 2 25 38 -3 36 -2 36 8 10 10 -27 29 -38 29 -18 0 6 -4 10
-10 10 -5 0 -6 9 -2 19 8 21 29 24 24 4 -2 -7 2 -13 8 -13 8 0 9 10 5 29 -7
32 11 52 27 30 7 -11 11 -11 15 -1 2 6 11 12 19 12 9 0 13 4 9 9 -3 5 -1 12 4
15 5 4 12 2 16 -4 10 -16 28 -12 21 5 -3 8 -1 15 5 15 6 0 17 7 25 15 9 8 13
15 9 15 -3 0 3 9 14 21 11 12 17 27 15 34 -4 8 4 15 18 18 47 9 58 7 52 -8z
m-794 -5 c0 -5 -5 -10 -11 -10 -5 0 -7 5 -4 10 3 6 8 10 11 10 2 0 4 -4 4 -10z
m-695 -40 c-11 -5 -27 -9 -35 -9 -13 -1 -13 0 0 9 8 5 24 9 35 9 l20 0 -20 -9z
m905 -98 c0 -14 -23 -32 -41 -32 -12 0 -16 -6 -12 -20 4 -13 0 -20 -9 -20 -9
0 -14 10 -13 28 0 22 5 28 28 30 15 2 27 8 27 13 0 5 5 9 10 9 6 0 10 -4 10
-8z m63 -7 c4 -8 2 -17 -4 -20 -13 -8 -49 4 -49 16 0 6 5 7 10 4 6 -3 10 -1
10 4 0 16 27 13 33 -4z m-996 -21 c-3 -3 -12 -4 -19 -1 -8 3 -5 6 6 6 11 1 17
-2 13 -5z m-37 -8 c0 -2 -9 -6 -20 -9 -11 -3 -18 -1 -14 4 5 9 34 13 34 5z
m841 -36 c5 0 9 5 9 10 0 6 5 10 10 10 16 0 12 -30 -5 -36 -20 -8 -19 -44 0
-44 15 0 15 -17 -3 -75 -5 -17 -7 -16 -11 8 l-6 28 -29 -43 c-16 -24 -26 -34
-22 -24 5 15 4 17 -7 7 -12 -9 -16 -4 -21 30 -8 48 5 69 29 49 8 -7 18 -10 22
-6 3 3 1 6 -6 6 -9 0 -9 5 -1 20 9 16 8 20 -5 20 -21 0 -19 11 8 44 17 21 23
24 25 12 2 -9 8 -16 13 -16z m249 16 c0 -8 -4 -18 -10 -21 -5 -3 -10 -4 -10
-1 0 2 -3 11 -6 20 -4 11 -1 16 10 16 9 0 16 -6 16 -14z m80 -40 c0 -2 -8 -6
-18 -8 -12 -4 -18 1 -18 13 0 14 4 15 18 8 10 -5 18 -11 18 -13z m-59 -16 c5
0 9 -8 9 -17 -1 -16 -2 -16 -15 1 -8 11 -14 27 -14 35 1 13 2 12 6 -1 2 -10 9
-18 14 -18z m-386 -59 c-7 -23 -25 -29 -25 -8 0 14 21 39 28 33 2 -3 1 -14 -3
-25z"/>
<path d="M3600 3816 c0 -2 7 -6 15 -10 8 -3 15 -1 15 4 0 6 -7 10 -15 10 -8 0
-15 -2 -15 -4z"/>
<path d="M3781 3722 c-10 -18 2 -42 20 -42 11 0 19 29 13 45 -8 20 -21 19 -33
-3z"/>
<path d="M3405 3540 c-3 -5 1 -10 10 -10 9 0 13 5 10 10 -3 6 -8 10 -10 10 -2
0 -7 -4 -10 -10z"/>
<path d="M3525 3320 c3 -5 10 -10 16 -10 5 0 9 5 9 10 0 6 -7 10 -16 10 -8 0
-12 -4 -9 -10z"/>
<path d="M2965 1830 c3 -5 14 -10 23 -10 15 0 15 2 2 10 -20 13 -33 13 -25 0z"/>
<path d="M2908 1233 c6 -2 18 -2 25 0 6 3 1 5 -13 5 -14 0 -19 -2 -12 -5z"/>
<path d="M3871 4024 c0 -11 3 -14 6 -6 3 7 2 16 -1 19 -3 4 -6 -2 -5 -13z"/>
<path d="M3890 4011 c0 -6 4 -13 10 -16 6 -3 7 1 4 9 -7 18 -14 21 -14 7z"/>
<path d="M3098 3559 c-19 -10 -25 -49 -9 -49 6 0 17 10 25 22 26 37 19 48 -16
27z"/>
<path d="M2378 3513 c7 -3 16 -2 19 1 4 3 -2 6 -13 5 -11 0 -14 -3 -6 -6z"/>
<path d="M2254 3501 c7 -10 31 -9 42 2 4 4 -5 7 -20 7 -15 0 -25 -4 -22 -9z"/>
<path d="M2798 3493 c12 -2 22 -8 22 -13 0 -5 7 -7 15 -4 28 11 15 24 -22 23
-24 -1 -29 -3 -15 -6z"/>
<path d="M2309 3368 c-8 -35 -3 -80 9 -87 13 -7 11 -17 -17 -60 -35 -54 -37
-86 -6 -86 12 0 19 -6 17 -14 -2 -7 6 -20 16 -27 11 -7 22 -30 25 -51 5 -29 2
-41 -13 -55 -22 -20 -25 -44 -10 -68 8 -13 10 -12 10 3 0 10 5 15 10 12 6 -3
10 1 10 10 0 11 5 15 15 11 10 -4 15 2 17 17 0 12 2 27 2 33 1 6 9 19 19 28
21 21 21 30 3 87 -8 24 -17 56 -20 70 -3 14 -17 42 -31 63 -16 23 -23 45 -20
56 6 19 -13 60 -27 60 -5 0 -8 -1 -9 -2z"/>
<path d="M2500 3341 c0 -16 5 -33 10 -36 6 -4 10 6 10 24 0 16 -4 33 -10 36
-6 4 -10 -6 -10 -24z"/>
<path d="M2459 3293 c-2 -15 2 -79 7 -125 7 -52 24 -65 66 -49 35 13 47 32 54
83 5 37 4 45 -10 45 -10 0 -16 -8 -15 -21 6 -73 -12 -86 -39 -28 -9 20 -20 39
-23 42 -3 3 -9 17 -13 33 -6 24 -25 38 -27 20z"/>
<path d="M2646 3291 c-4 -5 -2 -13 4 -16 6 -4 8 -15 5 -25 -9 -28 19 -124 43
-148 28 -28 39 -11 36 57 -2 41 -10 65 -31 94 -30 43 -47 54 -57 38z"/>
<path d="M2600 3218 c0 -7 9 -31 19 -53 l19 -40 1 41 c1 37 -12 64 -31 64 -4
0 -8 -6 -8 -12z"/>
<path d="M2187 3183 c-4 -3 -7 -13 -7 -22 1 -13 3 -13 11 2 11 19 8 33 -4 20z"/>
<path d="M2959 3178 c-7 -23 -4 -38 7 -42 8 -3 14 -12 14 -21 0 -8 7 -15 15
-15 12 0 14 7 9 27 -8 32 -40 67 -45 51z"/>
<path d="M3159 3123 c-3 -13 -6 -37 -8 -58 -1 -17 -3 -18 -11 -5 -8 12 -10 10
-10 -9 0 -22 1 -23 23 -9 26 18 43 88 20 88 -7 0 -14 -3 -14 -7z"/>
<path d="M2590 3049 c0 -11 5 -17 10 -14 6 3 10 13 10 21 0 8 -4 14 -10 14 -5
0 -10 -9 -10 -21z"/>
<path d="M3102 3045 c0 -16 2 -22 5 -12 2 9 2 23 0 30 -3 6 -5 -1 -5 -18z"/>
<path d="M3268 3050 c-16 -18 -16 -19 1 -17 9 0 18 9 18 19 2 21 3 21 -19 -2z"/>
<path d="M3191 3053 c-1 -6 -4 -20 -7 -30 -5 -17 -5 -17 6 0 6 10 9 23 6 30
-3 9 -5 9 -5 0z"/>
<path d="M3297 3019 c-18 -11 -24 -39 -7 -39 6 0 10 6 10 14 0 8 6 16 13 19 6
2 10 7 7 10 -3 3 -13 1 -23 -4z"/>
<path d="M3360 2998 c0 -9 7 -19 16 -22 25 -10 27 -1 4 19 -17 15 -20 16 -20
3z"/>
<path d="M2664 2956 c-10 -56 23 -124 34 -70 6 26 -8 104 -18 104 -5 0 -12
-16 -16 -34z"/>
<path d="M3453 2963 c-7 -2 -12 -17 -12 -31 2 -24 2 -25 6 -4 2 12 9 20 14 17
5 -4 9 1 9 9 0 9 -1 16 -2 15 -2 0 -9 -3 -15 -6z"/>
<path d="M2997 2917 c-11 -29 -9 -43 4 -30 6 6 9 19 7 29 -3 18 -4 18 -11 1z"/>
<path d="M2255 2868 c-2 -7 -5 -24 -7 -38 -2 -14 -7 -23 -12 -22 -5 2 -13 -2
-17 -10 -7 -10 -9 -9 -9 5 0 9 -5 17 -11 17 -7 0 -8 -11 -3 -32 4 -18 8 -85 9
-148 1 -63 5 -127 9 -142 5 -19 4 -28 -3 -28 -20 0 -12 -17 14 -28 24 -11 25
-10 19 14 -5 17 -3 24 7 22 15 -3 28 52 30 122 0 25 5 66 9 92 9 45 2 88 -20
129 -5 9 -6 26 -3 38 6 22 -5 30 -12 9z"/>
<path d="M2015 2756 c6 -28 26 -67 45 -86 11 -11 19 -24 16 -29 -3 -4 1 -8 9
-8 8 0 15 9 15 19 0 10 -3 18 -7 18 -5 0 -8 13 -9 29 -1 16 -7 36 -15 43 -19
19 -58 29 -54 14z"/>
<path d="M3225 2750 c-4 -6 -11 -7 -17 -4 -16 10 -56 -16 -62 -41 -3 -13 -9
-31 -12 -40 -6 -14 -3 -16 17 -10 21 7 22 6 10 -9 -8 -9 -9 -16 -3 -16 6 0 13
8 17 18 3 11 17 24 30 30 14 6 25 18 25 26 0 7 7 19 15 26 8 7 15 16 15 21 0
12 -27 11 -35 -1z"/>
<path d="M3540 2570 c0 -5 4 -10 9 -10 6 0 13 5 16 10 3 6 -1 10 -9 10 -9 0
-16 -4 -16 -10z"/>
<path d="M2405 2540 c-3 -5 -1 -10 4 -10 6 0 11 5 11 10 0 6 -2 10 -4 10 -3 0
-8 -4 -11 -10z"/>
<path d="M3507 2544 c-3 -4 -4 -11 -1 -15 7 -12 54 -11 54 1 0 6 -4 10 -9 10
-5 0 -16 2 -23 5 -8 3 -17 3 -21 -1z"/>
<path d="M2443 2509 c-6 -6 -17 -11 -24 -12 -8 -2 -20 -6 -26 -10 -7 -5 -17
-5 -23 -2 -5 3 -10 -1 -10 -9 0 -9 -4 -16 -10 -16 -5 0 -10 -7 -10 -15 0 -8 6
-15 13 -15 8 0 19 -11 25 -25 13 -29 21 -31 48 -9 18 15 18 15 -6 10 -24 -5
-24 -4 -5 10 11 8 20 25 20 39 1 13 7 31 15 40 15 18 9 30 -7 14z"/>
<path d="M1940 2499 c-25 -5 -65 -13 -90 -17 -25 -5 -61 -16 -79 -26 -29 -15
-41 -17 -65 -8 -17 6 -54 14 -81 18 -40 5 -54 3 -64 -10 -7 -9 -26 -16 -42
-16 -20 0 -29 -5 -29 -16 0 -14 7 -15 53 -8 28 4 70 6 92 4 47 -4 98 -3 140 2
32 3 31 7 36 -130 1 -13 7 -31 15 -40 59 -69 76 -82 126 -97 29 -9 65 -19 79
-24 14 -4 36 -4 49 1 13 5 30 6 38 3 7 -3 26 4 41 14 15 11 39 23 54 26 37 10
45 29 47 110 3 117 1 125 -16 125 -18 0 -64 44 -64 61 0 5 -13 9 -28 9 -15 0
-32 4 -38 10 -15 15 -122 20 -174 9z m69 -58 c8 -5 11 -16 6 -30 -5 -16 -14
-21 -42 -21 l-35 0 7 -42 c4 -24 18 -62 31 -86 l23 -43 -25 -9 c-18 -7 -29 -6
-38 3 -16 16 -49 75 -57 102 -7 24 18 78 31 70 6 -4 10 1 10 9 0 38 56 68 89
47z m197 -199 c-33 -64 -86 -86 -173 -72 -31 5 -61 15 -67 21 -8 9 -5 10 14 4
14 -4 46 -10 72 -12 43 -4 53 -1 98 32 27 20 50 41 50 46 0 5 5 9 10 9 6 0 5
-11 -4 -28z"/>
<path d="M2590 2466 c0 -8 5 -18 10 -21 6 -3 10 3 10 14 0 12 -4 21 -10 21 -5
0 -10 -6 -10 -14z"/>
<path d="M2595 2417 c-4 -10 -5 -21 -1 -24 10 -10 18 4 13 24 -4 17 -4 17 -12
0z"/>
<path d="M1440 2390 c0 -5 4 -10 9 -10 6 0 13 5 16 10 3 6 -1 10 -9 10 -9 0
-16 -4 -16 -10z"/>
<path d="M1480 2370 c0 -11 -5 -19 -12 -17 -6 1 -14 -7 -16 -18 -3 -16 -1 -17
8 -8 7 6 18 9 25 7 8 -3 12 6 13 26 0 16 -4 30 -9 30 -5 0 -9 -9 -9 -20z"/>
<path d="M1417 2311 c-9 -3 -26 -21 -37 -39 -13 -21 -28 -32 -42 -32 -13 0
-32 -7 -42 -15 -11 -9 -14 -15 -7 -15 7 0 11 -8 9 -17 -2 -10 1 -23 6 -29 11
-11 66 -6 66 6 0 5 9 11 19 15 12 3 18 12 15 20 -3 7 3 16 14 19 11 4 27 17
35 29 13 21 13 25 -2 44 -10 14 -22 19 -34 14z"/>
<path d="M2622 2288 c-14 -14 -16 -38 -3 -38 5 0 11 11 13 25 6 29 6 29 -10
13z"/>
<path d="M1672 2180 c-6 -24 -6 -42 -1 -46 5 -3 7 -9 4 -14 -6 -9 19 -32 31
-29 9 2 49 -13 86 -32 10 -5 25 -9 34 -9 10 0 14 -5 10 -15 -3 -8 -1 -15 5
-15 6 0 7 -4 4 -10 -3 -5 7 -12 22 -16 50 -11 57 -14 47 -24 -7 -7 -27 -5 -60
5 -27 8 -61 15 -76 15 -16 0 -28 5 -28 10 0 6 -9 10 -21 10 -11 0 -35 11 -53
25 -18 14 -37 25 -42 25 -10 0 -38 64 -39 85 0 19 -55 64 -70 59 -20 -8 -19
-15 10 -54 14 -19 25 -39 25 -46 0 -6 6 -14 14 -17 8 -3 29 -31 47 -61 19 -30
38 -56 42 -56 26 -1 63 -80 38 -80 -21 0 -41 13 -41 27 0 11 -7 13 -32 7 -18
-5 -53 -7 -77 -6 -34 2 -50 -3 -68 -20 -19 -18 -37 -23 -74 -23 -27 0 -49 3
-49 6 0 8 -38 4 -46 -4 -4 -4 1 -15 10 -26 13 -14 14 -21 5 -27 -15 -9 -41 24
-37 46 4 16 -49 73 -56 61 -9 -13 -3 -131 5 -131 5 0 9 -7 9 -16 0 -13 7 -15
38 -10 64 11 102 13 102 5 0 -10 -41 -23 -63 -20 -17 2 -17 0 -3 -33 13 -31
13 -36 0 -36 -7 0 -14 -5 -14 -11 0 -7 10 -5 26 5 27 19 95 18 101 0 2 -7 -9
-9 -29 -7 -28 3 -30 2 -12 -6 12 -5 25 -14 29 -20 7 -12 51 -14 108 -4 26 4
34 9 25 14 -9 6 -7 9 9 9 12 0 25 5 28 10 3 6 17 10 30 10 18 0 23 -4 18 -16
-5 -13 1 -15 36 -11 23 2 46 8 52 14 5 5 -4 8 -25 5 -18 -2 -37 1 -40 7 -5 7
2 11 18 11 15 0 26 6 26 13 0 13 11 13 94 0 27 -4 37 -2 32 5 -4 6 -1 21 6 32
11 17 11 22 -2 30 -13 8 -12 10 3 10 10 0 20 6 23 13 3 8 20 20 39 27 19 7 32
16 30 19 -7 13 22 38 58 50 20 7 35 16 32 21 -3 5 3 11 12 13 13 3 11 5 -6 6
-26 1 -20 16 6 16 9 0 19 7 21 15 5 13 3 13 -11 1 -10 -7 -17 -10 -17 -5 0 16
17 35 31 37 20 3 39 17 39 27 0 5 -16 6 -36 3 -30 -5 -36 -3 -41 15 -5 22 -55
41 -61 23 -2 -6 -13 -11 -23 -11 -11 0 -17 -4 -14 -10 3 -6 -4 -10 -17 -10
l-23 0 25 20 c14 11 29 20 33 20 23 0 -8 18 -41 24 -22 3 -45 13 -52 21 -14
17 -40 20 -40 5 0 -5 -6 -10 -14 -10 -9 0 -12 7 -9 18 3 13 -5 25 -24 37 -15
10 -34 25 -41 32 -23 23 -39 14 -50 -27z m348 -210 c0 -5 -2 -10 -4 -10 -3 0
-8 5 -11 10 -3 6 -1 10 4 10 6 0 11 -4 11 -10z m-73 -46 c-3 -3 -12 -4 -19 -1
-8 3 -5 6 6 6 11 1 17 -2 13 -5z m-302 -184 c4 -6 -6 -7 -27 -3 -44 8 -48 13
-10 13 17 0 34 -4 37 -10z m-181 -8 c-6 -4 -13 -14 -16 -22 -3 -10 -6 -8 -10
8 -5 18 -2 22 15 22 13 0 17 -3 11 -8z m226 -2 c0 -5 -5 -10 -11 -10 -5 0 -7
5 -4 10 3 6 8 10 11 10 2 0 4 -4 4 -10z m-185 -50 c16 -7 12 -9 -18 -9 -23 -1
-36 3 -32 9 7 12 23 12 50 0z"/>
<path d="M2660 2119 c0 -5 5 -7 10 -4 6 3 10 8 10 11 0 2 -4 4 -10 4 -5 0 -10
-5 -10 -11z"/>
<path d="M2557 1979 c7 -7 15 -10 18 -7 3 3 -2 9 -12 12 -14 6 -15 5 -6 -5z"/>
<path d="M2070 1973 c0 -5 13 -8 29 -8 16 0 27 3 24 8 -2 4 -15 7 -29 7 -13 0
-24 -3 -24 -7z"/>
<path d="M2120 1760 c-11 -6 -12 -12 -4 -20 13 -13 68 5 59 20 -8 13 -35 13
-55 0z"/>
<path d="M1970 1701 c-33 -9 -15 -19 37 -19 24 -1 47 -3 52 -7 5 -3 12 -1 16
5 7 11 -36 31 -63 29 -9 -1 -28 -4 -42 -8z"/>
<path d="M2120 1680 c0 -5 9 -10 21 -10 11 0 17 5 14 10 -3 6 -13 10 -21 10
-8 0 -14 -4 -14 -10z"/>
<path d="M1625 1630 c-33 -4 -51 -7 -40 -8 17 -2 18 -4 5 -12 -22 -14 -40 -12
-40 5 0 12 -8 14 -42 9 -23 -4 -53 -13 -67 -21 -23 -11 -24 -13 -6 -14 14 -1
9 -4 -12 -11 -18 -6 -33 -17 -33 -24 0 -23 43 -56 65 -49 11 4 40 11 65 17 25
6 47 14 50 18 4 6 208 40 242 40 4 0 7 6 6 13 -2 6 3 11 10 10 6 -2 12 2 12 7
0 10 -41 15 -92 12 -16 -1 -28 2 -28 8 0 5 -8 9 -17 8 -10 -1 -45 -4 -78 -8z"/>
<path d="M1980 1510 c0 -5 12 -10 26 -10 14 0 23 4 19 10 -3 6 -15 10 -26 10
-10 0 -19 -4 -19 -10z"/>
<path d="M2060 1475 c0 -17 31 -20 47 -4 7 7 13 7 17 1 3 -6 15 -8 26 -5 36 9
21 18 -35 20 -43 2 -55 0 -55 -12z"/>
<path d="M1980 1439 c-24 -8 -23 -8 5 -5 16 2 38 0 49 -6 14 -8 17 -7 14 4 -6
16 -35 19 -68 7z"/>
<path d="M2024 1356 c-10 -8 -15 -18 -11 -22 4 -4 15 0 24 9 22 21 12 31 -13
13z"/>
</g>
</svg>
